<svg version="1.1" id="svg1" xml:space="preserve" inkscape:version="1.3 (1:1.3+202307231459+0e150ed6c4)" sodipodi:docname="drawing2.svg" xmlns:inkscape="http://www.inkscape.org/namespaces/inkscape" xmlns:sodipodi="http://sodipodi.sourceforge.net/DTD/sodipodi-0.dtd" xmlns="http://www.w3.org/2000/svg" xmlns:svg="http://www.w3.org/2000/svg" viewBox="25.15 71.3 147.58 144.72"><sodipodi:namedview id="namedview1" pagecolor="#ffffff" bordercolor="#000000" borderopacity="0.25" inkscape:showpageshadow="2" inkscape:pageopacity="0.0" inkscape:pagecheckerboard="0" inkscape:deskcolor="#d1d1d1" inkscape:document-units="mm" inkscape:zoom="1.0074671" inkscape:cx="396.539" inkscape:cy="561.80495" inkscape:window-width="1466" inkscape:window-height="800" inkscape:window-x="0" inkscape:window-y="0" inkscape:window-maximized="1" inkscape:current-layer="layer2" showgrid="false"/><defs id="defs1"/><g inkscape:groupmode="layer" id="layer2" inkscape:label="Layer 2" style="fill:#ff0000"><ellipse style="fill:#6b3990;stroke-width:0.264426;fill-opacity:1" id="path186" cx="98.948082" cy="143.65491" rx="73.779427" ry="72.345772"/></g><g inkscape:label="Layer 1" inkscape:groupmode="layer" id="layer1"><g transform="matrix(0.03527778,0,0,-0.03527778,11.267327,230.92889)" fill="#000000" stroke="none" id="g188"><path id="path189" style="display:inline;opacity:1;fill:#f9f9f9;fill-opacity:1;stroke-width:7.3797" d="M 2483.8972 -4509.0038 A 2063.9338 2031.3356 0 0 0 419.96176 -2477.6758 A 2063.9338 2031.3356 0 0 0 2483.8972 -446.33313 A 2063.9338 2031.3356 0 0 0 4547.8326 -2477.6758 A 2063.9338 2031.3356 0 0 0 2483.8972 -4509.0038 z M 2490.4157 -4458.9647 A 1983.5577 1972.5642 0 0 1 4473.9752 -2486.3916 A 1983.5577 1972.5642 0 0 1 2490.4157 -513.83313 A 1983.5577 1972.5642 0 0 1 506.85629 -2486.3916 A 1983.5577 1972.5642 0 0 1 2490.4157 -4458.9647 z " transform="scale(1,-1)"/><path d="m 2335,4369 c -182,-22 -451,-97 -574,-159 -66,-33 -85,-60 -24,-35 20,9 41,19 47,24 10,8 140,57 159,60 4,0 8,1 10,2 1,0 13,2 27,5 14,2 41,10 60,18 23,9 43,11 58,5 22,-9 102,4 202,32 74,21 298,22 420,3 63,-10 127,-18 143,-18 15,-1 27,-5 27,-10 0,-4 7,-6 15,-2 8,3 15,2 15,-3 0,-4 19,-12 43,-18 126,-32 169,-51 397,-170 180,-95 216,-118 304,-201 55,-52 81,-71 86,-62 4,7 13,9 19,6 42,-26 -31,48 -129,131 -63,53 -237,161 -349,217 -120,61 -348,136 -487,161 -109,20 -361,27 -469,14 z" id="path1"/><path d="m 2348,4303 c 12,-2 30,-2 40,0 9,3 -1,5 -23,4 -22,0 -30,-2 -17,-4 z" id="path2"/><path d="m 2275,4191 c -16,-5 -59,-14 -95,-20 -86,-17 -160,-41 -160,-53 0,-6 6,-8 13,-5 6,2 39,10 72,16 33,7 80,16 105,21 25,6 101,15 170,21 68,5 127,12 129,15 2,2 -37,4 -87,4 -49,0 -96,2 -104,4 -7,2 -26,1 -43,-3 z" id="path3"/><path d="m 2550,4190 c -11,-7 -7,-10 17,-10 17,0 44,-5 60,-12 15,-6 51,-10 78,-9 29,1 102,-11 175,-29 69,-17 134,-33 145,-35 19,-4 20,-4 1,10 -33,25 -141,55 -268,75 -138,22 -186,24 -208,10 z" id="path4"/><path d="m 1665,4150 c -3,-5 -2,-10 4,-10 5,0 13,5 16,10 3,6 2,10 -4,10 -5,0 -13,-4 -16,-10 z" id="path5"/><path d="m 1891,4120 c -35,-17 -62,-33 -59,-36 3,-2 36,11 74,30 85,43 73,47 -15,6 z" id="path6"/><path d="m 1616,4128 c 5,-7 2,-9 -8,-6 -17,7 -115,-58 -110,-74 1,-5 -6,-7 -16,-4 -11,4 -24,0 -32,-9 -7,-8 -9,-15 -5,-15 4,0 2,-7 -5,-15 -8,-10 -16,-12 -20,-6 -8,14 -76,-42 -83,-69 -5,-20 -4,-20 26,3 18,13 86,61 152,107 66,45 121,83 123,85 2,1 -4,5 -13,9 -11,4 -14,2 -9,-6 z" id="path7"/><path d="m 2453,4093 c 31,-2 83,-2 115,0 31,2 5,3 -58,3 -63,0 -89,-1 -57,-3 z" id="path8"/><path d="m 2343,4078 c 21,-7 32,-7 40,1 8,8 0,11 -28,10 -40,-1 -40,-1 -12,-11 z" id="path9"/><path d="m 2644,4079 c 12,-8 25,-8 40,-1 18,9 16,11 -19,11 -33,0 -37,-1 -21,-10 z" id="path10"/><path d="m 2215,4073 c -56,-14 -233,-75 -255,-89 -17,-10 -18,-13 -5,-8 106,36 238,75 283,84 31,5 58,12 60,15 6,6 -55,5 -83,-2 z" id="path11"/><path d="m 2740,4070 c 0,-5 7,-10 16,-10 8,0 12,5 9,10 -3,6 -10,10 -16,10 -5,0 -9,-4 -9,-10 z" id="path12"/><path d="m 2798,4053 c 7,-3 16,-2 19,1 4,3 -2,6 -13,5 -11,0 -14,-3 -6,-6 z" id="path13"/><path d="m 2170,3979 c -116,-32 -180,-55 -215,-76 -44,-27 -39,-26 51,11 34,14 90,33 125,42 35,9 71,20 79,25 19,11 5,10 -40,-2 z" id="path14"/><path d="m 1873,3950 c -24,-11 -43,-21 -43,-24 0,-5 91,31 99,40 9,9 -16,2 -56,-16 z" id="path15"/><path d="m 2560,3951 -35,-7 49,-7 c 51,-7 78,-1 55,14 -15,9 -17,9 -69,0 z" id="path16"/><path d="m 2875,3950 c 11,-5 27,-9 35,-9 13,-1 13,0 0,9 -8,5 -24,9 -35,9 h -20 z" id="path17"/><path d="m 2320,3940 c -20,-6 -14,-8 25,-8 28,0 61,4 75,8 20,6 14,8 -25,8 -27,0 -61,-4 -75,-8 z" id="path18"/><path d="m 2950,3932 c 8,-5 26,-13 40,-16 17,-5 20,-4 10,2 -8,5 -26,13 -40,16 -17,5 -20,4 -10,-2 z" id="path19"/><path d="m 1238,3866 c -84,-74 -201,-195 -258,-267 -42,-54 -173,-269 -189,-312 -6,-14 -26,-60 -46,-102 -19,-41 -35,-86 -35,-98 0,-13 -5,-28 -12,-35 -7,-7 -9,-12 -5,-12 4,0 1,-13 -8,-30 -8,-16 -15,-42 -15,-59 0,-16 -4,-32 -9,-35 -4,-3 -11,-20 -14,-38 -4,-18 -13,-64 -21,-101 -8,-37 -13,-73 -10,-80 2,-7 -2,-48 -9,-92 -12,-67 -12,-108 -1,-260 8,-99 18,-205 23,-235 12,-77 101,-360 123,-392 10,-14 18,-32 18,-40 1,-7 15,-36 33,-65 98,-158 161,-253 169,-253 5,0 14,-12 20,-27 15,-35 68,-93 84,-93 16,0 68,-66 61,-77 -3,-5 10,-13 28,-19 l 34,-11 -20,26 c -11,14 -55,62 -98,106 -42,44 -96,112 -119,151 -22,39 -57,95 -76,124 -19,29 -61,106 -93,169 -50,101 -58,124 -58,174 0,42 -3,57 -13,57 -10,0 -13,8 -9,26 3,15 1,41 -4,58 -23,77 -49,272 -49,362 -1,73 -3,94 -11,81 -15,-26 -29,-11 -29,34 0,24 4,38 10,34 6,-4 10,9 10,32 0,48 23,199 43,283 9,36 23,99 33,140 33,147 93,270 241,493 97,147 154,216 272,333 71,69 104,114 85,114 -2,0 -36,-29 -76,-64 z M 677,2043 c -3,-10 -5,-4 -5,12 0,17 2,24 5,18 2,-7 2,-21 0,-30 z" id="path20"/><path d="m 2320,3904 c -25,-8 -57,-12 -71,-9 -16,4 -30,0 -38,-8 -6,-8 -24,-13 -40,-11 -27,3 -72,-19 -61,-30 3,-3 48,6 100,19 52,14 136,31 185,39 90,14 90,14 30,14 -33,0 -80,-6 -105,-14 z" id="path21"/><path d="m 3021,3905 c 9,-8 79,-35 79,-30 0,2 -16,12 -36,20 -37,15 -51,19 -43,10 z" id="path22"/><path d="m 2025,3884 -30,-15 40,7 c 22,3 47,10 55,15 26,15 -32,9 -65,-7 z" id="path23"/><path d="m 1800,3820 c -9,-6 -10,-10 -3,-10 6,0 15,5 18,10 8,12 4,12 -15,0 z" id="path24"/><path d="m 1469,3773 -24,-28 28,24 c 25,23 32,31 24,31 -2,0 -14,-12 -28,-27 z" id="path25"/><path d="m 1755,3790 c -3,-6 1,-7 9,-4 18,7 21,14 7,14 -6,0 -13,-4 -16,-10 z" id="path26"/><path d="m 3015,3773 c 63,-33 115,-55 115,-49 0,6 -146,76 -157,76 -4,-1 15,-13 42,-27 z" id="path27"/><path d="m 3210,3770 c 35,-24 54,-31 30,-11 -14,11 -29,21 -35,21 -5,0 -3,-5 5,-10 z" id="path28"/><path d="m 2375,3734 c -18,-13 -18,-15 -2,-31 15,-15 17,-15 22,0 4,9 5,23 3,31 -3,13 -5,13 -23,0 z" id="path29"/><path d="m 3850,3720 c 29,-40 47,-53 55,-40 8,14 -39,67 -60,67 -11,0 -10,-6 5,-27 z" id="path30"/><path d="m 3700,3738 c 0,-4 24,-35 53,-70 28,-34 57,-70 62,-79 6,-9 33,-49 60,-89 28,-40 54,-81 60,-92 5,-10 13,-18 18,-18 4,0 5,-4 2,-10 -3,-5 -1,-10 6,-10 7,0 10,-3 6,-6 -3,-3 12,-39 33,-80 21,-40 44,-90 50,-111 20,-62 73,-184 77,-179 7,7 -64,201 -101,276 -42,86 -42,88 -16,65 28,-25 133,-244 125,-262 -2,-8 5,-42 16,-76 13,-39 19,-74 15,-96 -5,-32 -4,-33 9,-15 11,17 11,29 0,74 -7,30 -16,64 -21,74 -5,14 -4,17 4,12 21,-13 13,8 -58,150 -38,76 -94,171 -124,209 -30,39 -79,104 -109,145 -55,76 -166,201 -167,188 z" id="path31"/><path d="m 1815,3717 c -39,-23 -112,-77 -144,-108 -9,-8 -32,-26 -51,-39 -58,-39 -190,-172 -224,-225 -50,-77 -116,-190 -116,-199 0,-4 21,23 46,61 26,37 57,81 70,96 13,16 24,37 24,46 0,32 223,234 357,325 24,16 48,35 54,42 13,16 11,16 -16,1 z" id="path32"/><path d="m 1469,3703 c -13,-16 -12,-17 4,-4 9,7 17,15 17,17 0,8 -8,3 -21,-13 z" id="path33"/><path d="m 3140,3716 c 0,-8 73,-56 84,-56 13,0 -1,12 -46,39 -21,13 -38,20 -38,17 z" id="path34"/><path d="m 3305,3707 c 7,-16 45,-40 45,-28 0,5 -11,16 -25,25 -16,11 -23,12 -20,3 z" id="path35"/><path d="m 2402,3698 c -7,-7 -12,-20 -12,-30 0,-12 -5,-15 -16,-11 -15,5 -15,3 1,-20 9,-14 14,-30 12,-34 -3,-5 6,-9 20,-8 26,0 53,-28 40,-41 -4,-4 -19,-1 -34,6 -39,18 -63,19 -63,2 0,-8 6,-12 15,-8 17,6 22,-29 5,-39 -6,-4 -9,-2 -8,3 6,20 -16,13 -24,-8 -9,-25 -11,-25 92,3 30,8 72,18 92,21 35,6 38,5 44,-21 10,-49 14,-55 29,-49 14,5 21,-11 16,-38 -1,-4 3,-14 9,-20 5,-7 7,-16 3,-19 -9,-10 5,-9 48,4 41,13 43,29 3,29 -13,0 -25,5 -25,10 -3,20 -4,25 -13,38 -4,7 -19,17 -33,23 -30,11 -25,35 7,31 21,-3 22,-2 11,12 -7,9 -17,13 -22,10 -13,-8 -11,20 2,33 9,9 6,10 -11,6 -15,-4 -26,-1 -32,11 -11,20 -40,22 -32,1 5,-11 -1,-15 -25,-15 -17,0 -31,5 -31,10 0,15 45,30 86,30 22,0 34,5 34,13 0,15 -41,37 -70,37 -10,0 -22,5 -25,11 -5,6 -22,8 -48,4 -34,-6 -39,-5 -34,9 8,19 5,20 -11,4 z m 72,-43 c 15,-8 36,-15 45,-15 14,0 14,-2 1,-10 -21,-14 -84,-12 -98,2 -34,34 1,49 52,23 z" id="path36"/><path d="m 2610,3694 c 0,-8 5,-12 10,-9 6,4 8,11 5,16 -9,14 -15,11 -15,-7 z" id="path37"/><path d="m 1249,3673 c -13,-16 -12,-17 4,-4 9,7 17,15 17,17 0,8 -8,3 -21,-13 z" id="path38"/><path d="m 3365,3670 c -9,-15 3,-30 25,-30 10,0 21,-4 25,-9 3,-5 24,-24 48,-42 l 42,-33 -30,33 c -47,52 -103,93 -110,81 z" id="path39"/><path d="m 3924,3652 c 2,-25 31,-74 60,-101 14,-13 23,-27 21,-31 -3,-5 2,-10 10,-14 8,-3 15,-14 15,-24 0,-11 7,-25 15,-32 8,-7 15,-16 15,-21 0,-5 27,-59 60,-120 116,-216 176,-424 211,-732 18,-162 -3,-428 -45,-558 -28,-86 -76,-212 -96,-248 -10,-20 -46,-94 -79,-165 -36,-77 -88,-165 -128,-220 -76,-103 -151,-195 -173,-213 -9,-8 -11,-12 -3,-13 6,0 33,27 60,59 26,33 52,60 57,60 5,1 -3,-14 -18,-31 -15,-18 -34,-44 -43,-58 -30,-46 -356,-290 -388,-290 -7,0 -20,-8 -29,-19 -14,-16 -128,-77 -208,-111 -13,-6 -30,-14 -38,-19 -26,-16 -231,-70 -343,-91 -85,-15 -155,-20 -340,-20 -240,-2 -325,7 -512,50 -44,11 -96,22 -115,26 -19,4 -67,22 -108,40 -40,18 -70,29 -67,25 3,-5 -2,-11 -10,-15 -8,-3 -15,-1 -15,5 0,6 -5,7 -11,3 -16,-9 10,-24 29,-16 10,3 13,1 8,-6 -4,-8 -2,-10 7,-6 8,3 21,-2 30,-10 21,-21 199,-92 277,-109 184,-42 370,-52 603,-32 161,14 224,25 385,66 175,44 334,116 500,225 305,202 528,450 667,744 20,41 47,98 60,125 30,61 78,226 104,360 20,100 46,349 38,363 -3,4 -8,56 -11,115 -7,116 -43,310 -77,417 -29,88 -88,237 -112,280 -11,19 -32,58 -47,85 -15,28 -43,77 -61,110 -38,71 -91,138 -129,165 -25,18 -27,18 -26,2 z m 195,-278 c 12,-20 20,-38 18,-41 -4,-4 -47,63 -47,73 0,11 10,1 29,-32 z m 125,-240 c 3,-8 2,-12 -4,-9 -6,3 -10,10 -10,16 0,14 7,11 14,-7 z" id="path40"/><path d="m 2713,3644 c 23,-13 26,-18 16,-30 -21,-26 -3,-25 27,2 24,22 26,25 8,21 -11,-2 -29,2 -39,9 -10,8 -24,14 -29,14 -6,-1 2,-8 17,-16 z" id="path41"/><path d="m 2605,3640 c -3,-5 -1,-10 4,-10 6,0 11,5 11,10 0,6 -2,10 -4,10 -3,0 -8,-4 -11,-10 z" id="path42"/><path d="m 3392,3510 c 172,-164 261,-281 348,-458 76,-153 101,-243 121,-432 16,-155 0,-401 -35,-510 -33,-105 -39,-133 -26,-125 15,9 13,2 -15,-61 -14,-32 -23,-59 -21,-62 5,-4 41,71 68,138 5,14 21,79 35,145 22,103 26,148 28,323 2,111 -1,205 -6,208 -5,3 -6,17 -3,31 5,20 4,24 -6,18 -10,-6 -12,-1 -8,19 10,51 -31,186 -98,318 -89,178 -265,389 -439,528 -102,82 -82,54 57,-80 z m 425,-1502 c -3,-8 -6,-5 -6,6 -1,11 2,17 5,13 3,-3 4,-12 1,-19 z" id="path43"/><path d="m 1399,3580 c -30,-28 -45,-47 -34,-41 20,9 104,91 94,91 -3,0 -30,-23 -60,-50 z" id="path44"/><path d="m 2239,3604 -24,-27 25,7 c 14,3 37,9 53,13 22,4 25,8 16,19 -18,21 -43,17 -70,-12 z" id="path45"/><path d="m 3405,3610 c 10,-11 20,-18 23,-15 7,6 -18,35 -31,35 -5,0 -2,-9 8,-20 z" id="path46"/><path d="m 2643,3591 c -10,-15 -9,-20 2,-25 18,-7 20,-42 3,-49 -7,-3 5,-6 27,-6 28,0 36,2 26,8 -12,8 -13,15 -3,35 10,23 9,25 -16,23 -21,-2 -26,2 -24,16 4,22 0,22 -15,-2 z" id="path47"/><path d="m 3730,3597 c 0,-4 19,-28 43,-55 23,-27 52,-62 65,-78 13,-16 20,-22 16,-14 -20,41 -124,164 -124,147 z" id="path48"/><path d="m 1449,3544 c -18,-19 -27,-32 -18,-29 14,5 65,65 56,65 -2,0 -19,-16 -38,-36 z" id="path49"/><path d="m 2781,3557 c -6,-8 -8,-17 -5,-20 4,-3 -5,-9 -20,-13 -14,-3 -26,-12 -26,-20 0,-18 14,-18 30,1 7,8 19,15 26,15 8,0 14,10 14,25 0,29 -3,30 -19,12 z" id="path50"/><path d="m 3660,3563 c 0,-5 12,-20 26,-34 24,-21 26,-22 16,-3 -13,25 -42,50 -42,37 z" id="path51"/><path d="m 1027,3448 c -97,-138 -202,-355 -235,-483 -24,-91 -50,-360 -32,-335 5,8 10,27 10,41 0,15 7,46 16,70 8,24 13,56 10,71 -7,35 24,145 83,292 51,126 89,199 158,301 73,110 84,132 67,132 -8,0 -43,-40 -77,-89 z m 59,50 c -9,-12 -16,-19 -16,-15 0,11 24,47 28,42 2,-2 -3,-14 -12,-27 z" id="path52"/><path d="m 2150,3485 c -24,-25 -40,-45 -35,-45 14,1 102,90 90,90 -6,0 -31,-20 -55,-45 z" id="path53"/><path d="m 2265,3507 c -68,-63 -201,-170 -222,-178 -36,-14 -47,-11 -32,7 7,9 -14,2 -49,-16 -55,-28 -84,-37 -129,-39 -28,-2 -73,-88 -113,-214 -54,-174 -51,-167 -63,-134 -17,44 -32,26 -29,-35 3,-40 -2,-67 -16,-94 -26,-53 -43,-127 -52,-236 -4,-51 -8,-76 -9,-56 0,20 -9,44 -18,54 -17,17 -18,16 -21,-26 -5,-62 4,-91 25,-83 12,5 15,2 11,-9 -4,-8 2,-48 13,-89 10,-40 19,-84 19,-98 0,-22 -4,-18 -26,24 -27,51 -54,156 -54,212 0,18 -4,33 -10,33 -22,0 1,-227 28,-280 10,-19 24,-54 32,-77 7,-24 19,-43 26,-43 10,0 74,-134 74,-156 0,-5 -18,10 -41,31 l -40,40 7,-30 c 3,-16 11,-34 15,-40 14,-14 11,-45 -5,-45 -7,0 -18,15 -24,33 -10,27 -11,20 -9,-55 2,-83 4,-89 33,-120 36,-38 90,-138 74,-138 -11,0 -62,54 -93,99 l -19,26 7,-25 c 4,-14 17,-51 30,-82 21,-54 23,-102 4,-114 -27,-16 1,-24 86,-24 57,0 95,-4 95,-10 0,-5 -12,-10 -26,-10 -20,0 -24,-4 -19,-19 5,-17 0,-20 -42,-26 -83,-11 -92,-15 -109,-46 -8,-17 -13,-33 -10,-37 3,-3 6,0 6,6 0,16 41,15 113,-3 80,-19 84,-27 10,-23 -65,3 -103,-16 -103,-51 0,-9 -7,-29 -15,-45 -19,-36 -19,-36 10,-36 14,0 34,-9 45,-20 11,-11 27,-20 36,-20 8,0 13,-4 9,-9 -9,-15 225,-122 263,-120 9,0 -2,8 -26,18 -23,9 -39,20 -35,24 4,5 0,5 -9,2 -9,-4 -25,-2 -35,5 -16,10 -15,10 5,5 17,-5 29,-1 44,15 15,15 26,20 42,15 42,-14 98,-17 109,-6 6,6 25,11 42,11 35,0 132,44 118,53 -6,4 -43,0 -84,-7 -273,-51 -255,-50 -318,-30 -20,6 -23,4 -18,-9 6,-17 2,-16 -55,5 -15,6 -25,14 -23,19 3,4 17,4 30,-1 15,-6 27,-6 30,0 3,5 50,9 103,7 65,-1 105,3 121,12 13,7 62,21 110,31 47,11 110,27 138,37 52,18 69,33 36,33 -12,0 -14,3 -7,10 8,8 45,7 123,-1 88,-9 117,-9 142,1 18,8 28,18 25,26 -3,9 2,14 14,14 16,0 20,7 20,30 0,17 4,30 9,30 5,0 16,15 25,33 l 16,32 1,-37 c 1,-21 3,-46 3,-55 1,-10 -9,-20 -24,-23 l -25,-6 23,-8 c 13,-4 26,-5 29,-2 3,3 19,-2 36,-10 28,-15 30,-15 23,2 -21,52 -46,172 -41,194 3,14 15,50 26,80 l 20,55 h 137 c 137,0 138,0 187,-31 28,-18 59,-35 70,-38 17,-5 23,-20 32,-78 14,-86 36,-144 61,-157 29,-15 25,24 -4,44 -24,16 -34,51 -11,42 6,-2 39,-10 72,-17 33,-7 67,-15 75,-18 27,-10 60,-11 65,-1 4,5 26,9 51,9 24,0 44,5 44,10 0,6 7,10 15,10 12,0 14,-7 9,-27 -10,-41 -23,-51 -85,-58 -44,-5 -59,-4 -72,9 -20,20 -26,20 -68,-1 -33,-17 -33,-18 -9,-21 14,-2 48,-10 75,-17 35,-10 42,-14 25,-15 -17,-2 -11,-5 19,-12 31,-7 56,-7 80,1 20,5 52,13 72,16 19,3 44,12 55,20 19,14 19,15 -1,20 -11,4 -35,29 -54,56 -33,48 -34,49 -85,49 -33,0 -59,6 -72,16 -19,15 -19,16 1,9 25,-8 145,5 145,15 0,4 -21,7 -46,6 -53,-2 -63,5 -95,71 -19,39 -25,44 -27,26 -2,-12 2,-31 7,-42 6,-11 11,-29 11,-40 0,-18 -5,-19 -51,-15 -73,7 -90,18 -83,54 5,23 0,35 -28,64 -39,40 -52,44 -67,19 -8,-14 -10,-7 -11,32 0,55 -37,144 -57,138 -17,-6 -38,36 -24,50 6,6 11,29 11,50 0,34 2,38 15,27 8,-7 15,-20 15,-29 1,-25 38,-101 50,-101 5,0 19,-9 30,-20 11,-11 26,-17 34,-14 16,6 51,-35 71,-83 8,-18 21,-33 29,-33 20,0 20,-1 -8,51 -13,24 -29,62 -36,84 -12,43 -36,95 -60,135 -15,23 -41,112 -35,118 6,6 45,-70 45,-88 0,-10 6,-23 14,-27 14,-8 46,-91 46,-121 0,-24 54,-134 73,-151 23,-19 22,-13 -17,76 -19,43 -46,134 -61,202 -31,137 -28,163 21,249 25,42 25,62 0,62 -62,0 -186,71 -186,106 0,20 27,29 45,14 8,-7 21,-10 30,-7 8,4 17,1 21,-5 4,-7 10,-5 16,6 7,13 2,24 -19,46 -51,54 -73,81 -73,90 0,5 -34,25 -76,44 -63,30 -87,36 -142,36 -37,0 -85,-5 -107,-12 -38,-11 -39,-12 -15,-19 14,-4 19,-7 13,-8 -7,-1 -13,-5 -13,-10 0,-6 12,-6 32,0 18,5 34,9 36,9 2,0 14,-12 27,-26 24,-25 24,-26 49,-7 33,24 32,28 -6,41 l -33,10 40,1 c 59,1 85,-21 85,-71 0,-35 -3,-40 -19,-35 -13,3 -27,-4 -42,-21 l -22,-26 -15,22 c -8,12 -23,22 -33,22 -21,0 -26,-16 -6,-23 30,-10 -69,-29 -122,-23 -51,6 -62,4 -94,-18 -35,-24 -36,-24 -43,-4 -4,14 -9,17 -17,9 -17,-17 -67,18 -67,49 0,18 -24,49 -87,114 -74,75 -88,85 -94,70 -6,-14 -8,-11 -8,13 -1,23 -8,36 -23,44 -13,7 -29,20 -36,31 -7,10 -19,18 -25,18 -7,0 -32,19 -56,42 -32,31 -48,56 -60,96 -16,53 -42,84 -57,69 -4,-4 -3,-23 3,-42 6,-19 7,-35 3,-35 -5,0 -38,20 -74,45 -72,49 -81,44 -51,-28 8,-20 15,-59 15,-86 0,-27 4,-52 9,-56 6,-3 9,-13 8,-23 -1,-26 33,-72 54,-72 22,0 31,-13 23,-34 -8,-20 -21,-20 -41,-1 -22,22 -33,9 -33,-40 0,-50 -17,-95 -36,-95 -20,0 -101,-87 -108,-115 -5,-21 -2,-27 18,-35 14,-5 30,-18 35,-29 15,-28 14,-81 -3,-100 -7,-9 -17,-27 -21,-41 -4,-17 3,-11 24,20 23,34 31,56 31,90 0,59 9,90 26,90 7,0 29,9 49,20 44,25 45,25 45,1 0,-34 17,-32 39,3 26,41 26,46 3,46 -15,0 -18,10 -20,60 -2,41 2,68 12,82 9,12 13,32 10,44 -4,16 0,25 14,33 28,15 32,14 32,-9 0,-26 36,-46 44,-24 3,9 6,24 6,35 0,32 23,22 80,-36 29,-30 57,-52 62,-49 4,3 8,0 8,-6 0,-20 122,-140 142,-140 11,0 17,-4 14,-9 -4,-5 5,-23 19,-39 14,-16 25,-35 25,-41 0,-12 39,-6 70,9 8,5 56,15 107,24 157,27 238,-3 320,-119 23,-33 42,-64 42,-70 0,-6 -3,-5 -7,1 -4,6 -29,15 -57,19 -55,10 -249,14 -279,6 -20,-4 -20,-4 -1,-11 18,-6 16,-9 -12,-23 -17,-9 -57,-46 -89,-82 -65,-73 -138,-127 -203,-150 -25,-8 -59,-26 -77,-40 -17,-13 -51,-29 -75,-34 -24,-5 -49,-17 -56,-27 -16,-22 -60,-44 -87,-44 -22,0 -54,16 -46,23 14,11 89,45 113,51 15,3 26,10 23,15 -6,10 37,31 63,31 10,0 26,9 37,21 30,33 68,48 132,53 63,4 108,28 137,73 21,31 13,29 -75,-17 -70,-37 -73,-37 -40,-10 19,16 43,32 53,35 23,9 22,25 -3,25 -38,0 -90,-28 -100,-55 -8,-20 -16,-25 -43,-25 -22,0 -44,-10 -67,-30 -19,-16 -43,-29 -52,-30 -10,0 -18,-6 -18,-14 0,-26 -40,-30 -57,-7 -18,26 -35,18 -24,-12 7,-18 3,-25 -21,-39 -39,-24 -44,-23 -56,12 -8,22 -15,28 -27,24 -13,-5 -15,-15 -10,-47 5,-28 3,-42 -6,-48 -12,-7 -11,-9 1,-9 8,0 26,-10 39,-20 20,-17 21,-22 10,-36 -9,-11 -23,-14 -46,-11 -25,4 -33,2 -33,-9 0,-14 -36,-20 -42,-6 -4,10 -87,49 -121,56 -33,8 -59,52 -38,65 7,5 12,12 10,17 -5,17 31,15 38,-1 3,-10 16,-28 28,-41 18,-20 31,-24 71,-23 l 49,2 -48,6 c -46,7 -67,21 -67,49 0,6 3,12 8,12 4,0 6,17 4,38 -3,31 -10,42 -35,56 -63,33 -100,92 -130,206 -33,122 -38,148 -48,230 -16,133 -32,195 -51,194 -12,-1 -17,14 -22,75 -7,80 8,160 38,206 8,12 18,47 22,76 3,30 12,59 20,65 18,15 34,60 25,70 -13,14 39,136 60,141 11,3 19,9 19,13 0,14 169,70 210,70 21,0 51,5 66,10 34,13 37,10 19,-24 -20,-37 -20,-36 18,-36 23,0 41,8 57,25 13,14 29,25 35,25 14,0 65,42 65,53 0,4 -13,7 -29,7 -16,0 -34,7 -41,15 -8,10 -21,13 -33,9 -25,-8 -19,4 46,79 49,57 61,80 22,44 z m -129,-725 c -9,-8 -26,10 -26,26 1,15 2,15 15,-2 8,-11 13,-21 11,-24 z m 95,-79 c 13,-16 12,-17 -3,-4 -17,13 -22,21 -14,21 2,0 10,-8 17,-17 z m -572,-229 c 1,-42 6,-85 11,-95 6,-10 10,-31 10,-48 0,-16 5,-33 10,-36 6,-4 9,-18 8,-33 -1,-15 8,-45 19,-67 12,-23 24,-59 27,-80 3,-22 3,-34 0,-27 -9,19 -24,4 -24,-24 0,-17 5,-24 19,-24 11,0 23,-5 27,-11 8,-13 -14,-29 -30,-23 -21,8 -56,126 -56,190 0,39 -11,65 -41,95 -16,16 -19,34 -19,132 0,72 4,117 12,125 20,20 25,5 27,-74 z m 896,-104 c 3,-5 1,-10 -4,-10 -6,0 -11,5 -11,10 0,6 2,10 4,10 3,0 8,-4 11,-10 z m -995,-158 c 0,-15 -2,-15 -10,-2 -13,20 -13,33 0,25 6,-3 10,-14 10,-23 z m 1396,-59 c 19,-14 42,-40 51,-57 19,-36 32,-236 15,-236 -6,0 -13,6 -15,13 -4,9 -8,9 -15,-2 -8,-10 -12,-6 -17,18 -5,24 -2,37 10,51 13,14 16,28 11,54 -4,21 -2,36 4,38 8,2 7,16 -2,43 -11,33 -18,41 -43,43 -16,2 -34,10 -38,18 -11,20 -40,17 -70,-6 -31,-24 -87,-38 -87,-21 0,6 10,16 23,22 12,6 38,19 57,30 47,26 75,24 116,-8 z m 219,-181 c -2,-3 -9,6 -14,19 -5,13 -19,46 -30,72 -34,78 -23,69 15,-12 19,-41 32,-76 29,-79 z m -251,129 c 8,-13 -39,-59 -68,-67 -28,-7 -36,-24 -12,-24 8,0 17,-4 20,-9 10,-16 -5,-41 -25,-41 -10,0 -34,-16 -53,-35 -30,-32 -33,-40 -29,-76 7,-49 -23,-89 -61,-82 -17,4 -28,-1 -36,-16 -13,-25 -5,-42 15,-34 24,8 7,-23 -20,-41 -14,-9 -33,-16 -44,-16 -11,0 -26,-7 -35,-15 -8,-8 -22,-15 -31,-15 -8,0 -17,-6 -19,-12 -2,-7 -8,-27 -13,-45 -10,-29 -9,-32 11,-35 18,-3 21,-10 21,-52 0,-63 -22,-81 -58,-48 l -24,22 -24,-24 c -14,-14 -37,-26 -52,-28 -39,-6 -45,-18 -9,-18 29,0 51,-15 39,-27 -3,-2 -24,-7 -46,-10 l -41,-6 5,59 c 14,144 17,164 23,164 15,0 29,-16 41,-46 13,-34 52,-61 70,-49 6,3 9,11 6,16 -4,5 -3,15 2,22 17,26 33,84 33,119 0,58 8,68 51,68 43,0 50,13 19,32 -26,16 -26,38 0,38 27,0 64,59 48,77 -6,7 -9,13 -7,14 2,0 12,2 22,4 27,5 47,25 47,46 0,12 11,23 26,29 20,8 24,14 18,33 -9,31 -8,30 -44,12 -31,-16 -31,-16 -20,4 12,24 66,55 80,46 5,-3 15,4 23,15 26,37 137,75 151,51 z M 1817,1938 c -3,-8 -6,-5 -6,6 -1,11 2,17 5,13 3,-3 4,-12 1,-19 z m -110,-74 c -10,-11 -47,30 -47,53 0,25 1,24 25,-12 15,-20 24,-39 22,-41 z m 1253,50 c 0,-8 -4,-14 -10,-14 -5,0 -10,9 -10,21 0,11 5,17 10,14 6,-3 10,-13 10,-21 z m -170,-74 c 0,-5 -5,-10 -11,-10 -5,0 -7,5 -4,10 3,6 8,10 11,10 2,0 4,-4 4,-10 z m -430,-19 c 0,-5 -7,-11 -14,-14 -10,-4 -13,-1 -9,9 6,15 23,19 23,5 z m 620,-23 c 0,-5 -4,-8 -10,-8 -5,0 -10,10 -10,23 0,18 2,19 10,7 5,-8 10,-18 10,-22 z m -543,-72 c -3,-7 0,-19 6,-25 15,-15 -25,-56 -47,-48 -23,9 -20,22 12,56 31,34 36,37 29,17 z m -237,-226 c 0,-5 -4,-10 -10,-10 -5,0 -10,5 -10,10 0,6 5,10 10,10 6,0 10,-4 10,-10 z m 70,-27 c 2,-2 -2,-8 -10,-13 -17,-10 -53,7 -44,21 5,9 41,4 54,-8 z" id="path54"/><path d="m 2021,3485 c -35,-19 -72,-42 -83,-52 -11,-10 -29,-17 -39,-15 -10,2 -28,-3 -39,-11 -18,-13 -100,-114 -100,-124 0,-3 10,2 59,32 9,6 25,18 36,27 28,24 86,67 146,108 60,42 96,69 89,69 -3,0 -34,-15 -69,-34 z" id="path55"/><path d="m 1314,3489 c -10,-12 -31,-29 -46,-39 -41,-25 -109,-120 -198,-276 -44,-76 -123,-371 -141,-519 -10,-86 -10,-336 -1,-389 4,-22 8,57 9,175 1,198 3,225 32,361 44,208 91,341 155,443 75,117 97,147 156,202 36,35 62,63 59,63 -3,0 -14,-10 -25,-21 z" id="path56"/><path d="m 1363,3453 c -71,-88 -71,-88 -45,-72 12,8 22,17 22,21 0,4 16,24 35,45 31,34 42,53 31,53 -2,0 -22,-21 -43,-47 z" id="path57"/><path d="m 2775,3480 c 3,-5 8,-10 11,-10 2,0 4,5 4,10 0,6 -5,10 -11,10 -5,0 -7,-4 -4,-10 z" id="path58"/><path d="m 2730,3469 c 0,-5 5,-7 10,-4 6,3 10,8 10,11 0,2 -4,4 -10,4 -5,0 -10,-5 -10,-11 z" id="path59"/><path d="m 2521,3444 c 0,-11 3,-14 6,-6 3,7 2,16 -1,19 -3,4 -6,-2 -5,-13 z" id="path60"/><path d="m 3610,3435 c 13,-14 26,-25 28,-25 3,0 -5,11 -18,25 -13,14 -26,25 -28,25 -3,0 5,-11 18,-25 z" id="path61"/><path d="m 3690,3452 c 0,-12 49,-56 55,-50 3,2 -8,17 -25,31 -16,15 -30,23 -30,19 z" id="path62"/><path d="m 2460,3429 c -19,-4 -43,-6 -52,-3 -10,3 -18,1 -18,-5 0,-6 -6,-11 -14,-11 -8,0 -17,-11 -20,-24 -3,-13 -8,-31 -12,-39 -3,-9 3,-17 18,-21 13,-3 33,-22 46,-42 l 24,-36 34,37 c 42,46 42,55 4,55 -36,0 -40,22 -6,38 13,6 26,22 28,36 3,14 5,26 4,25 0,-1 -17,-5 -36,-10 z" id="path63"/><path d="m 3878,3400 c 78,-132 132,-240 132,-264 0,-18 52,-148 57,-142 3,2 -9,46 -26,96 -17,51 -31,96 -31,101 0,15 -111,203 -133,224 -20,20 -20,20 1,-15 z" id="path64"/><path d="m 3706,3355 c 47,-86 127,-216 131,-212 5,5 -27,68 -52,102 -12,17 -32,48 -43,70 -12,22 -31,51 -42,65 -17,19 -15,14 6,-25 z" id="path65"/><path d="m 1080,3369 c 0,-5 5,-7 10,-4 6,3 10,8 10,11 0,2 -4,4 -10,4 -5,0 -10,-5 -10,-11 z" id="path66"/><path d="m 2670,3370 c 0,-5 4,-10 9,-10 6,0 13,5 16,10 3,6 -1,10 -9,10 -9,0 -16,-4 -16,-10 z" id="path67"/><path d="m 3650,3370 c 0,-5 5,-10 11,-10 5,0 7,5 4,10 -3,6 -8,10 -11,10 -2,0 -4,-4 -4,-10 z" id="path68"/><path d="m 1255,3300 c -21,-32 -45,-62 -53,-65 -8,-3 -12,-12 -8,-20 3,-8 0,-14 -6,-12 -6,1 -13,-4 -16,-12 -3,-9 0,-11 8,-6 10,6 12,4 7,-8 -3,-10 -2,-17 2,-17 5,0 17,20 28,45 10,25 22,45 26,45 5,0 5,5 2,10 -3,6 -1,10 5,10 6,0 8,5 5,10 -3,6 -3,10 2,10 9,0 46,61 40,66 -2,2 -21,-23 -42,-56 z" id="path69"/><path d="m 3770,3357 c 0,-4 15,-29 33,-55 18,-26 48,-73 66,-104 32,-56 48,-76 33,-40 -33,79 -130,226 -132,199 z" id="path70"/><path d="m 3670,3341 c 0,-6 5,-11 10,-11 6,0 9,-3 8,-7 -1,-5 8,-24 20,-43 27,-44 29,-32 2,20 -20,39 -40,60 -40,41 z" id="path71"/><path d="m 2550,3255 c 0,-18 -12,-19 -28,-3 -9,9 -15,9 -24,0 -9,-9 -9,-15 0,-24 10,-10 18,-10 39,2 28,16 42,40 24,40 -6,0 -11,-7 -11,-15 z" id="path72"/><path d="m 1703,3229 c -18,-16 -33,-33 -33,-36 0,-4 16,8 35,27 32,31 39,40 33,40 -2,0 -18,-14 -35,-31 z" id="path73"/><path d="m 3894,3240 c 3,-8 30,-75 60,-149 31,-73 56,-140 56,-147 0,-8 4,-14 10,-14 10,0 2,25 -52,160 -30,73 -89,193 -74,150 z" id="path74"/><path d="m 3741,3225 c 9,-11 29,-44 45,-72 16,-29 33,-53 37,-53 13,0 -42,91 -71,120 -15,14 -19,16 -11,5 z" id="path75"/><path d="m 1155,3126 c -12,-13 -19,-28 -17,-34 1,-5 -11,-32 -27,-59 -35,-56 -64,-133 -52,-133 5,0 12,11 15,25 4,14 11,23 15,20 5,-3 7,5 4,17 -3,16 -2,19 5,10 6,-10 14,0 27,35 10,26 29,69 42,96 25,51 20,61 -12,23 z" id="path76"/><path d="m 3906,3115 c 4,-8 10,-15 15,-15 4,0 6,7 3,15 -4,8 -10,15 -15,15 -4,0 -6,-7 -3,-15 z" id="path77"/><path d="m 2056,3091 c -8,-12 20,-22 40,-14 13,5 13,7 2,14 -17,11 -35,11 -42,0 z" id="path78"/><path d="m 961,3072 c -14,-26 -63,-204 -57,-209 2,-2 11,22 20,54 8,32 24,84 34,116 19,58 20,71 3,39 z" id="path79"/><path d="m 3843,3050 c 29,-52 40,-52 15,0 -11,22 -24,40 -28,40 -5,0 1,-18 13,-40 z" id="path80"/><path d="m 3936,3055 c 9,-22 28,-67 41,-100 13,-33 21,-47 18,-32 -9,44 -43,131 -60,153 -13,16 -13,12 1,-21 z" id="path81"/><path d="m 1223,3053 c -10,-16 -20,-30 -23,-33 -11,-9 -38,-85 -55,-151 -9,-35 -18,-72 -21,-81 -3,-10 -1,-18 5,-18 6,0 11,11 11,24 0,41 40,158 76,224 35,62 40,86 7,35 z" id="path82"/><path d="m 1935,3030 c -4,-6 1,-20 10,-30 22,-24 55,-32 62,-14 3,8 15,14 27,14 26,0 145,-37 160,-50 6,-4 34,-14 61,-21 29,-7 58,-22 68,-36 10,-13 25,-23 33,-23 8,0 23,-13 32,-30 19,-34 43,-41 35,-10 -3,12 -21,32 -39,47 -33,24 -37,47 -9,41 19,-4 19,7 1,52 -11,28 -20,38 -31,34 -8,-4 -15,-11 -15,-16 0,-16 -105,-2 -165,21 -62,23 -220,38 -230,21 z" id="path83"/><path d="m 891,2990 c -1,-8 -4,-26 -7,-40 -5,-22 -4,-23 6,-7 6,10 9,28 7,40 -2,12 -5,15 -6,7 z" id="path84"/><path d="m 4072,2960 c 0,-14 2,-19 5,-12 2,6 2,18 0,25 -3,6 -5,1 -5,-13 z" id="path85"/><path d="m 871,2904 c 0,-11 3,-14 6,-6 3,7 2,16 -1,19 -3,4 -6,-2 -5,-13 z" id="path86"/><path d="m 3903,2905 c 13,-51 21,-70 32,-82 7,-7 16,-32 20,-55 4,-24 12,-50 17,-58 6,-10 7,-2 3,25 -12,81 -28,132 -52,161 -19,22 -23,24 -20,9 z" id="path87"/><path d="m 1741,2836 c -1,-44 2,-57 10,-49 8,8 9,25 1,60 l -10,48 z" id="path88"/><path d="m 855,2850 c -4,-17 -5,-34 -2,-36 3,-3 8,9 12,26 4,17 5,34 2,36 -3,3 -8,-9 -12,-26 z" id="path89"/><path d="m 1040,2869 c 0,-5 5,-7 10,-4 6,3 10,8 10,11 0,2 -4,4 -10,4 -5,0 -10,-5 -10,-11 z" id="path90"/><path d="m 4030,2871 c 0,-6 4,-13 10,-16 6,-3 7,1 4,9 -7,18 -14,21 -14,7 z" id="path91"/><path d="m 4176,2863 c -7,-22 18,-110 27,-96 8,14 -3,102 -14,108 -4,3 -10,-3 -13,-12 z" id="path92"/><path d="m 887,2831 c -4,-17 -3,-21 5,-13 5,5 8,16 6,23 -3,8 -7,3 -11,-10 z" id="path93"/><path d="m 1077,2803 c -9,-26 -21,-74 -26,-106 -6,-32 -13,-63 -17,-68 -9,-15 -4,-459 5,-501 5,-21 5,-38 1,-38 -11,0 -20,26 -20,56 0,14 -5,34 -10,45 -16,29 -13,418 4,512 7,43 10,75 5,70 -20,-21 -39,-183 -39,-342 1,-171 5,-200 59,-406 27,-100 108,-274 177,-380 48,-74 274,-313 305,-324 20,-6 3,23 -20,35 -12,6 -34,25 -49,41 -15,17 -58,65 -97,107 -38,43 -82,97 -96,122 -14,25 -35,55 -46,67 -12,12 -27,36 -36,52 -16,33 -72,178 -81,210 -2,11 -10,40 -16,64 -7,25 -15,39 -19,33 -10,-17 -15,83 -14,280 1,188 16,359 38,455 17,72 12,80 -8,16 z" id="path94"/><path d="m 4105,2830 c 4,-14 12,-29 17,-35 7,-7 8,-2 3,15 -4,14 -12,30 -17,35 -7,7 -8,2 -3,-15 z" id="path95"/><path d="m 4040,2830 c 0,-5 5,-10 11,-10 5,0 7,5 4,10 -3,6 -8,10 -11,10 -2,0 -4,-4 -4,-10 z" id="path96"/><path d="m 877,2793 c -4,-3 -7,-11 -7,-17 0,-6 5,-5 12,2 6,6 9,14 7,17 -3,3 -9,2 -12,-2 z" id="path97"/><path d="m 691,2774 c 0,-11 3,-14 6,-6 3,7 2,16 -1,19 -3,4 -6,-2 -5,-13 z" id="path98"/><path d="m 4047,2776 c -4,-10 -3,-24 2,-30 5,-6 11,-24 14,-41 3,-25 4,-23 5,10 0,22 -3,49 -7,59 -7,18 -8,19 -14,2 z" id="path99"/><path d="m 3932,2745 c 0,-16 2,-22 5,-12 2,9 2,23 0,30 -3,6 -5,-1 -5,-18 z" id="path100"/><path d="m 4271,2769 c -1,-3 8,-78 19,-168 18,-140 19,-181 10,-289 -10,-124 -7,-174 5,-90 12,82 10,293 -4,393 -12,90 -28,169 -30,154 z" id="path101"/><path d="m 862,2733 c -18,-35 -35,-245 -29,-357 6,-102 26,-258 42,-331 32,-140 146,-391 261,-572 39,-61 133,-165 224,-248 43,-38 47,-41 18,-10 -20,22 -58,63 -84,90 -102,110 -154,187 -261,387 -71,136 -121,273 -160,443 -22,98 -29,433 -10,538 7,42 12,77 11,77 -2,0 -7,-8 -12,-17 z" id="path102"/><path d="m 1110,2734 c 0,-8 5,-12 10,-9 6,3 10,10 10,16 0,5 -4,9 -10,9 -5,0 -10,-7 -10,-16 z" id="path103"/><path d="m 1737,2743 c -14,-23 -37,-101 -37,-129 0,-32 20,-84 33,-84 13,0 20,30 10,43 -11,13 -9,140 2,158 4,5 5,13 2,15 -3,3 -7,1 -10,-3 z" id="path104"/><path d="m 2425,2700 c 3,-5 13,-10 21,-10 8,0 12,5 9,10 -3,6 -13,10 -21,10 -8,0 -12,-4 -9,-10 z" id="path105"/><path d="m 4208,2693 c -3,-10 -2,-76 2,-148 8,-164 -2,-323 -28,-445 -44,-205 -55,-247 -83,-315 -16,-38 -29,-74 -29,-80 1,-23 64,104 77,155 8,30 18,69 23,85 51,171 77,361 75,535 -3,142 -12,230 -25,230 -4,0 -10,-8 -12,-17 z" id="path106"/><path d="m 1090,2580 c -7,-66 -10,-145 -6,-176 4,-36 2,-61 -5,-70 -16,-20 14,-205 57,-343 19,-62 38,-111 41,-108 3,3 -4,34 -15,69 -48,147 -79,360 -51,342 9,-5 10,6 5,42 -14,107 -18,193 -11,211 10,23 14,142 5,148 -3,2 -12,-50 -20,-115 z" id="path107"/><path d="m 2520,2683 c 0,-5 9,-21 20,-38 24,-36 26,-26 5,15 -15,29 -25,38 -25,23 z" id="path108"/><path d="m 3976,2645 c -3,-9 -6,-22 -5,-28 0,-7 5,-1 10,12 5,13 8,26 5,28 -2,2 -6,-3 -10,-12 z" id="path109"/><path d="m 4037,2555 c 4,-72 -1,-144 -16,-255 -30,-215 -42,-262 -100,-417 -17,-46 -27,-83 -23,-83 9,0 22,32 68,164 36,107 64,234 64,297 0,21 5,39 10,39 12,0 12,280 0,325 -5,17 -6,-12 -3,-70 z" id="path110"/><path d="m 4071,2593 c 0,-34 4,-65 9,-68 12,-7 12,21 1,85 l -8,45 z" id="path111"/><path d="m 4150,2610 c 0,-5 5,-10 11,-10 5,0 7,5 4,10 -3,6 -8,10 -11,10 -2,0 -4,-4 -4,-10 z" id="path112"/><path d="m 740,2510 c 1,-107 18,-297 35,-384 21,-106 85,-306 97,-306 6,0 7,8 3,18 -8,18 -39,141 -74,287 -25,107 -41,242 -41,345 0,41 -5,82 -10,90 -7,11 -10,-4 -10,-50 z" id="path113"/><path d="m 1940,2555 c 0,-8 2,-15 4,-15 2,0 6,7 10,15 3,8 1,15 -4,15 -6,0 -10,-7 -10,-15 z" id="path114"/><path d="m 3982,2511 c -7,-21 -12,-60 -12,-87 0,-208 -136,-621 -260,-794 -70,-97 -92,-132 -85,-138 7,-8 41,33 100,119 150,221 244,503 266,796 5,74 8,137 6,139 -2,2 -9,-13 -15,-35 z" id="path115"/><path d="m 2604,2514 c 3,-8 6,-18 6,-20 0,-2 5,-4 10,-4 16,0 11,27 -6,34 -12,5 -15,2 -10,-10 z" id="path116"/><path d="m 2670,2520 c 0,-5 7,-10 16,-10 8,0 12,5 9,10 -3,6 -10,10 -16,10 -5,0 -9,-4 -9,-10 z" id="path117"/><path d="m 4163,2426 c -1,-50 -9,-124 -18,-164 -8,-41 -13,-77 -10,-82 5,-8 0,-25 -47,-179 -10,-35 -17,-65 -14,-68 5,-5 45,117 70,213 26,103 46,357 29,367 -5,3 -9,-36 -10,-87 z" id="path118"/><path d="m 713,2400 c 0,-30 2,-43 4,-27 2,15 2,39 0,55 -2,15 -4,2 -4,-28 z" id="path119"/><path d="m 1732,2408 c 6,-18 28,-21 28,-4 0,9 -7,16 -16,16 -9,0 -14,-5 -12,-12 z" id="path120"/><path d="m 4082,2370 c 0,-14 2,-19 5,-12 2,6 2,18 0,25 -3,6 -5,1 -5,-13 z" id="path121"/><path d="m 862,2335 c 0,-11 3,-29 8,-40 11,-25 11,1 0,35 -6,20 -8,21 -8,5 z" id="path122"/><path d="m 2792,2268 c 7,-21 34,-31 64,-24 28,7 28,8 10,22 -24,17 -79,19 -74,2 z" id="path123"/><path d="m 1120,2226 c 0,-8 4,-17 9,-20 5,-4 7,3 4,14 -6,23 -13,26 -13,6 z" id="path124"/><path d="m 945,2195 c 3,-16 10,-61 15,-100 11,-78 70,-265 105,-335 40,-79 92,-149 206,-276 61,-68 114,-124 116,-124 10,0 -46,69 -135,163 -52,56 -100,113 -106,127 -6,14 -26,51 -44,84 -40,68 -117,287 -131,372 -6,33 -15,73 -21,89 l -10,30 z" id="path125"/><path d="m 891,2194 c 0,-11 3,-14 6,-6 3,7 2,16 -1,19 -3,4 -6,-2 -5,-13 z" id="path126"/><path d="m 2076,2115 c 4,-8 11,-15 16,-15 6,0 5,6 -2,15 -7,8 -14,15 -16,15 -2,0 -1,-7 2,-15 z" id="path127"/><path d="m 751,2084 c 0,-11 3,-14 6,-6 3,7 2,16 -1,19 -3,4 -6,-2 -5,-13 z" id="path128"/><path d="m 4026,2004 c -4,-9 -4,-19 -1,-22 2,-3 7,3 11,12 4,9 4,19 1,22 -2,3 -7,-3 -11,-12 z" id="path129"/><path d="m 3775,1959 c -4,-6 -5,-12 -2,-15 2,-3 7,2 10,11 7,17 1,20 -8,4 z" id="path130"/><path d="m 740,1901 c 0,-18 52,-156 65,-171 6,-8 30,-49 53,-90 22,-41 48,-84 57,-95 11,-13 10,-7 -3,15 -37,65 -129,255 -147,303 -17,45 -25,57 -25,38 z" id="path131"/><path d="m 4081,1870 c -23,-86 -34,-115 -69,-179 -22,-40 -30,-62 -21,-59 8,2 24,24 36,49 31,62 76,205 71,221 -3,7 -11,-7 -17,-32 z" id="path132"/><path d="m 3736,1820 c -9,-17 -14,-30 -9,-30 8,0 35,51 30,56 -2,2 -11,-10 -21,-26 z" id="path133"/><path d="m 870,1805 c 0,-14 80,-182 119,-250 80,-141 252,-340 402,-466 86,-72 182,-137 214,-144 29,-7 29,-7 -10,23 -22,17 -43,28 -47,26 -5,-3 -8,1 -8,9 0,7 -10,18 -23,24 -13,6 -53,34 -90,62 -38,28 -72,51 -77,51 -5,0 -11,9 -15,20 -3,10 -25,36 -49,57 -50,45 -127,135 -216,253 -83,111 -114,164 -151,261 -17,43 -35,79 -40,79 -5,0 -9,-2 -9,-5 z" id="path134"/><path d="m 1988,1763 c 6,-2 18,-2 25,0 6,3 1,5 -13,5 -14,0 -19,-2 -12,-5 z" id="path135"/><path d="m 3866,1755 c -3,-8 -1,-15 3,-15 5,0 11,7 15,15 3,8 1,15 -3,15 -5,0 -11,-7 -15,-15 z" id="path136"/><path d="m 3217,1739 c 4,-13 8,-18 11,-10 2,7 -1,18 -6,23 -8,8 -9,4 -5,-13 z" id="path137"/><path d="m 1246,1737 c 3,-10 9,-15 12,-12 3,3 0,11 -7,18 -10,9 -11,8 -5,-6 z" id="path138"/><path d="m 3161,1724 c 0,-10 13,-29 28,-41 25,-20 31,-21 41,-8 14,17 5,35 -17,35 -9,0 -25,7 -35,17 -17,15 -18,15 -17,-3 z" id="path139"/><path d="m 3665,1704 c -9,-14 -14,-28 -12,-31 3,-3 13,9 22,26 19,38 14,41 -10,5 z" id="path140"/><path d="m 4026,1618 c -20,-40 -30,-64 -21,-53 22,26 67,116 62,121 -2,2 -21,-28 -41,-68 z" id="path141"/><path d="m 3608,1618 c -49,-61 -56,-78 -19,-43 29,26 68,85 57,85 -2,0 -19,-19 -38,-42 z" id="path142"/><path d="m 3875,1640 c -3,-5 -1,-10 4,-10 6,0 11,5 11,10 0,6 -2,10 -4,10 -3,0 -8,-4 -11,-10 z" id="path143"/><path d="m 3860,1609 c 0,-5 5,-7 10,-4 6,3 10,8 10,11 0,2 -4,4 -10,4 -5,0 -10,-5 -10,-11 z" id="path144"/><path d="m 3966,1605 c -9,-26 -7,-32 5,-12 6,10 9,21 6,23 -2,3 -7,-2 -11,-11 z" id="path145"/><path d="m 1150,1574 c 0,-28 173,-224 186,-211 2,2 -24,32 -57,67 -34,36 -74,84 -91,108 -27,40 -38,50 -38,36 z" id="path146"/><path d="m 3820,1529 c 0,-5 5,-7 10,-4 6,3 10,8 10,11 0,2 -4,4 -10,4 -5,0 -10,-5 -10,-11 z" id="path147"/><path d="m 3906,1443 c -81,-106 -108,-145 -103,-149 5,-5 58,59 111,134 47,68 41,79 -8,15 z" id="path148"/><path d="m 3688,1452 c -7,-11 -19,-21 -27,-23 -11,-4 -11,-7 1,-17 12,-9 18,-5 31,23 18,38 16,46 -5,17 z" id="path149"/><path d="m 3610,1450 c 0,-5 5,-10 11,-10 5,0 7,5 4,10 -3,6 -8,10 -11,10 -2,0 -4,-4 -4,-10 z" id="path150"/><path d="m 3140,1372 c 0,-12 -6,-24 -12,-27 -7,-2 -100,-8 -206,-13 -176,-9 -229,-17 -195,-29 23,-8 -9,-43 -40,-43 -29,0 -70,-16 -123,-49 -17,-10 -40,-21 -50,-24 -10,-2 13,-5 52,-6 38,0 75,-6 81,-12 17,-17 245,5 278,27 22,15 25,15 19,1 -6,-18 -40,-32 -66,-28 -9,1 -19,-3 -22,-8 -4,-6 -13,-8 -22,-4 -22,8 -149,-7 -134,-17 19,-12 133,-10 148,2 7,6 15,8 18,5 3,-3 -12,-24 -34,-46 -40,-41 -76,-53 -85,-28 -3,9 -12,8 -37,-5 -19,-11 -54,-18 -88,-18 -49,-1 -54,-2 -37,-13 34,-20 385,-15 385,6 0,5 9,7 20,4 11,-3 20,-1 20,3 0,5 47,27 104,49 103,41 135,50 106,31 -12,-8 -9,-10 12,-10 16,0 39,11 56,28 16,15 42,37 58,49 l 29,22 -30,1 c -37,0 -60,14 -51,29 4,6 1,11 -8,11 -8,0 -17,4 -20,9 -4,5 3,7 14,4 11,-3 20,-3 20,1 0,3 -19,11 -42,17 -53,13 -70,25 -97,69 -18,31 -21,32 -21,12 z m -400,-182 c -89,-23 -90,-23 -90,-11 0,12 72,29 125,29 34,0 28,-2 -35,-18 z" id="path151"/><path d="m 1360,1295 c 29,-30 55,-53 57,-51 5,5 -94,106 -104,106 -4,0 17,-25 47,-55 z" id="path152"/><path d="m 1421,1333 c 7,-12 15,-20 18,-17 3,2 -3,12 -13,22 -17,16 -18,16 -5,-5 z" id="path153"/><path d="m 3605,1330 c -10,-11 -15,-20 -11,-20 4,0 19,9 33,20 17,13 20,20 11,20 -8,0 -23,-9 -33,-20 z" id="path154"/><path d="m 3470,1260 c 0,-5 4,-10 9,-10 6,0 13,5 16,10 3,6 -1,10 -9,10 -9,0 -16,-4 -16,-10 z" id="path155"/><path d="m 3700,1205 c -65,-54 -112,-76 -75,-35 10,11 14,20 8,20 -15,0 -44,-36 -36,-44 5,-4 -1,-14 -11,-22 -26,-18 -42,-18 -26,1 7,8 8,15 3,15 -11,0 -40,-29 -45,-45 -2,-5 -10,-10 -19,-10 -16,-1 -69,-45 -55,-45 5,0 3,-7 -5,-16 -7,-9 11,-2 39,15 29,17 57,31 61,31 5,0 14,7 21,14 16,20 80,57 80,47 0,-4 -25,-25 -55,-45 -56,-37 -74,-57 -32,-35 47,25 136,98 124,102 -7,3 -1,13 18,28 54,43 90,78 80,78 -5,0 -39,-24 -75,-54 z" id="path156"/><path d="m 3669,1209 -24,-20 28,17 c 15,9 27,18 27,20 0,8 -8,4 -31,-17 z" id="path157"/><path d="m 1470,1206 c 0,-2 8,-10 18,-17 15,-13 16,-12 3,4 -13,16 -21,21 -21,13 z" id="path158"/><path d="m 1580,1135 c 0,-2 23,-16 50,-30 28,-14 50,-23 50,-20 0,2 -22,16 -50,30 -27,14 -50,23 -50,20 z" id="path159"/><path d="m 1251,1061 c -10,-6 -9,-12 4,-25 19,-19 101,-76 109,-76 14,0 -8,28 -29,38 -13,6 -26,19 -29,29 -8,24 -40,43 -55,34 z" id="path160"/><path d="m 2008,1043 c 7,-3 16,-2 19,1 4,3 -2,6 -13,5 -11,0 -14,-3 -6,-6 z" id="path161"/><path d="m 3195,1039 c -11,-4 -38,-15 -59,-24 -22,-8 -37,-17 -34,-20 6,-6 99,24 112,36 14,13 4,18 -19,8 z" id="path162"/><path d="m 3444,995 c -10,-8 -14,-15 -8,-15 6,0 17,7 24,15 16,19 9,19 -16,0 z" id="path163"/><path d="m 3065,993 c -11,-3 -31,-10 -45,-15 -24,-10 -24,-11 -5,-18 16,-6 13,-8 -17,-14 -49,-9 -55,-21 -12,-23 19,-1 34,3 34,9 0,5 6,8 14,5 10,-4 14,0 11,14 -3,13 3,21 21,25 13,3 24,10 24,15 0,5 -1,8 -2,8 -2,-1 -12,-4 -23,-6 z" id="path164"/><path d="m 1935,972 c 12,-12 99,-42 123,-42 15,1 15,2 -2,12 -11,6 -33,14 -50,19 -17,4 -42,11 -56,15 -17,5 -22,3 -15,-4 z" id="path165"/><path d="m 3158,973 c 7,-3 16,-2 19,1 4,3 -2,6 -13,5 -11,0 -14,-3 -6,-6 z" id="path166"/><path d="m 2965,960 c -3,-5 1,-10 10,-10 9,0 13,5 10,10 -3,6 -8,10 -10,10 -2,0 -7,-4 -10,-10 z" id="path167"/><path d="m 3294,955 c -10,-8 -14,-15 -8,-15 5,0 19,7 30,15 10,8 14,15 8,15 -5,0 -19,-7 -30,-15 z" id="path168"/><path d="m 1380,953 c 0,-16 141,-113 230,-158 l 35,-17 -22,21 c -12,11 -27,21 -33,21 -5,0 -10,5 -10,11 0,5 -4,8 -9,5 -5,-3 -20,5 -34,18 -14,13 -28,22 -30,20 -2,-3 -15,7 -28,21 -13,13 -28,25 -32,25 -5,0 -22,9 -38,21 -16,11 -29,17 -29,12 z" id="path169"/><path d="m 2698,953 c 7,-3 16,-2 19,1 4,3 -2,6 -13,5 -11,0 -14,-3 -6,-6 z" id="path170"/><path d="m 2925,950 c -3,-5 -1,-10 4,-10 6,0 11,5 11,10 0,6 -2,10 -4,10 -3,0 -8,-4 -11,-10 z" id="path171"/><path d="m 2100,920 c 19,-13 30,-13 30,0 0,6 -10,10 -22,10 -19,0 -20,-2 -8,-10 z" id="path172"/><path d="m 2873,916 c -23,-8 -62,-17 -87,-20 -25,-4 -48,-11 -51,-17 -8,-11 -5,-11 75,2 68,10 120,29 120,41 0,10 -6,9 -57,-6 z" id="path173"/><path d="m 2145,910 c 3,-5 10,-10 16,-10 5,0 9,5 9,10 0,6 -7,10 -16,10 -8,0 -12,-4 -9,-10 z" id="path174"/><path d="m 3150,896 c -25,-13 -48,-22 -51,-20 -8,4 -140,-40 -166,-55 -15,-9 -13,-10 12,-5 100,19 275,81 275,96 0,14 -23,8 -70,-16 z" id="path175"/><path d="m 2200,900 c 0,-5 5,-10 10,-10 6,0 10,5 10,10 0,6 -4,10 -10,10 -5,0 -10,-4 -10,-10 z" id="path176"/><path d="m 2238,843 c 6,-2 18,-2 25,0 6,3 1,5 -13,5 -14,0 -19,-2 -12,-5 z" id="path177"/><path d="m 2365,830 c 50,-11 244,-12 228,-2 -7,5 -70,9 -140,9 -94,1 -117,-1 -88,-7 z" id="path178"/><path d="m 2653,833 c 9,-2 23,-2 30,0 6,3 -1,5 -18,5 -16,0 -22,-2 -12,-5 z" id="path179"/><path d="m 2845,800 c 4,-6 11,-8 16,-5 14,9 11,15 -7,15 -8,0 -12,-5 -9,-10 z" id="path180"/><path d="m 2985,800 c -18,-8 -17,-9 8,-9 15,-1 27,4 27,9 0,12 -8,12 -35,0 z" id="path181"/><path d="m 2010,776 c 15,-15 39,-20 75,-17 l 20,2 -20,8 c -11,4 -36,11 -55,15 -30,6 -33,5 -20,-8 z" id="path182"/><path d="m 2325,773 c 22,-2 60,-6 85,-9 41,-6 43,-7 20,-16 -13,-5 -47,-8 -75,-7 -60,3 -135,-9 -135,-22 0,-13 24,-11 38,3 8,8 21,5 51,-15 22,-15 49,-27 59,-27 10,0 27,-6 38,-14 21,-16 83,-14 234,5 107,15 149,30 58,22 -57,-5 -68,-3 -68,10 0,18 20,27 68,28 33,1 34,2 12,9 -14,4 -44,5 -67,2 -28,-3 -43,-1 -43,6 0,12 20,18 75,25 17,2 -64,4 -180,4 -115,0 -192,-2 -170,-4 z" id="path183"/><path d="m 2155,750 c 4,-6 11,-8 16,-5 14,9 11,15 -7,15 -8,0 -12,-5 -9,-10 z" id="path184"/><path d="m 2105,740 c 3,-5 8,-10 11,-10 2,0 4,5 4,10 0,6 -5,10 -11,10 -5,0 -7,-4 -4,-10 z" id="path185"/></g></g></svg>